name C:\Users\r0593348\3dpredictsim\Results\MidTarsalJoint\Fal_s1_bCst_PF_Natali2010_ls150_MT_k50_MTP_T10_ig24.mot
datacolumns 128
datarows 4
range 0.00000000 0.03625272
endheader
time	pelvis_tilt	pelvis_list	pelvis_rotation	pelvis_tx	pelvis_ty	pelvis_tz	hip_flexion_l	hip_adduction_l	hip_rotation_l	hip_flexion_r	hip_adduction_r	hip_rotation_r	knee_angle_l	knee_angle_r	ankle_angle_l	ankle_angle_r	subtalar_angle_l	subtalar_angle_r	mtj_angle_l	mtj_angle_r	mtp_angle_l	mtp_angle_r	lumbar_extension	lumbar_bending	lumbar_rotation	arm_flex_l	arm_add_l	arm_rot_l	arm_flex_r	arm_add_r	arm_rot_r	elbow_flex_l	elbow_flex_r	pro_sup_l	pro_sup_r	glut_med1_l/activation	glut_med2_l/activation	glut_med3_l/activation	glut_min1_l/activation	glut_min2_l/activation	glut_min3_l/activation	semimem_l/activation	semiten_l/activation	bifemlh_l/activation	bifemsh_l/activation	sar_l/activation	add_long_l/activation	add_brev_l/activation	add_mag1_l/activation	add_mag2_l/activation	add_mag3_l/activation	tfl_l/activation	pect_l/activation	grac_l/activation	glut_max1_l/activation	glut_max2_l/activation	glut_max3_l/activation	iliacus_l/activation	psoas_l/activation	quad_fem_l/activation	gem_l/activation	peri_l/activation	rect_fem_l/activation	vas_med_l/activation	vas_int_l/activation	vas_lat_l/activation	med_gas_l/activation	lat_gas_l/activation	soleus_l/activation	tib_post_l/activation	flex_dig_l/activation	flex_hal_l/activation	tib_ant_l/activation	per_brev_l/activation	per_long_l/activation	per_tert_l/activation	ext_dig_l/activation	ext_hal_l/activation	ercspn_l/activation	intobl_l/activation	extobl_l/activation	glut_med1_r/activation	glut_med2_r/activation	glut_med3_r/activation	glut_min1_r/activation	glut_min2_r/activation	glut_min3_r/activation	semimem_r/activation	semiten_r/activation	bifemlh_r/activation	bifemsh_r/activation	sar_r/activation	add_long_r/activation	add_brev_r/activation	add_mag1_r/activation	add_mag2_r/activation	add_mag3_r/activation	tfl_r/activation	pect_r/activation	grac_r/activation	glut_max1_r/activation	glut_max2_r/activation	glut_max3_r/activation	iliacus_r/activation	psoas_r/activation	quad_fem_r/activation	gem_r/activation	peri_r/activation	rect_fem_r/activation	vas_med_r/activation	vas_int_r/activation	vas_lat_r/activation	med_gas_r/activation	lat_gas_r/activation	soleus_r/activation	tib_post_r/activation	flex_dig_r/activation	flex_hal_r/activation	tib_ant_r/activation	per_brev_r/activation	per_long_r/activation	per_tert_r/activation	ext_dig_r/activation	ext_hal_r/activation	ercspn_r/activation	intobl_r/activation	extobl_r/activation	
          0.00000000	         -2.93017634	         -2.23667291	          6.84367866	          0.00000000	          0.91557615	         -0.00185670	        -15.90107441	         -2.05810749	          7.16274293	         28.98824966	          3.35528450	         -1.85207946	        -12.41624280	         -8.90350283	         -6.65117394	          5.78319349	         14.92379153	         -7.54378725	         11.64026833	         -0.28877897	         -0.03432544	         -0.68287334	         -1.17953755	          0.21138528	         -3.01696373	          4.49836207	        -13.45525318	         14.95910780	         -9.02394342	        -13.51897653	          4.96338369	         40.92627127	         18.19574522	         86.51662706	         86.51662706	          0.20616268	          0.08670419	          0.05652779	          0.21799040	          0.16110719	          0.09778270	          0.05009977	          0.05000187	          0.05000162	          0.05000047	          0.09880154	          0.06701352	          0.05009428	          0.06007644	          0.06005968	          0.06010392	          0.26239628	          0.05007353	          0.05011489	          0.05008278	          0.05006665	          0.05078111	          0.37396426	          0.62774818	          0.05000921	          0.05023451	          0.05355927	          0.30683911	          0.10637305	          0.11582805	          0.11155514	          0.24280602	          0.33494596	          0.35021195	          0.22056277	          0.15524290	          0.22442731	          0.05000022	          0.08422361	          0.21763756	          0.05000062	          0.05000021	          0.05000082	          0.05000013	          0.07216900	          0.07737178	          0.05000003	          0.05000010	          0.07694151	          0.05000010	          0.05000012	          0.05000014	          0.19566944	          0.08476829	          0.11779831	          0.08744192	          0.07214633	          0.12514777	          0.27069465	          0.27247632	          0.16506719	          0.09622369	          0.05000053	          0.07233239	          0.13113371	          0.05000149	          0.10477869	          0.13597237	          0.05215312	          0.07216876	          0.53581271	          0.16524766	          0.07410627	          0.06007029	          0.06007020	          0.06007019	          0.06007018	          0.07216828	          0.07216864	          0.06100215	          0.05861999	          0.05001474	          0.05935304	          0.41890861	          0.17327741	          0.22882994	          0.17148051	          0.39294813	          0.20455444	          0.05000001	          0.10836812	          0.09539079	
          0.01208424	         -2.92837439	         -2.33593053	          7.15441503	          0.01876992	          0.91433324	         -0.00174672	        -15.92506596	         -2.41811342	          7.01343670	         28.30659303	          3.64240692	         -1.56206088	        -14.09417281	         -9.72971002	         -7.13465924	          5.14403637	         15.73563828	         -7.79366395	          9.97489202	         -0.50597158	          1.40719122	         -0.58842329	         -0.91225190	          0.41277175	         -3.08446812	          4.12015009	        -13.45751766	         15.30156635	        -10.04741657	        -13.51211274	          5.09775240	         42.21855767	         17.68754601	         86.51662706	         86.51662706	          0.28970432	          0.07216918	          0.05003616	          0.22956173	          0.13409934	          0.08139053	          0.05000122	          0.05000030	          0.05000029	          0.05000027	          0.08224697	          0.05577946	          0.05000081	          0.05000547	          0.05000114	          0.05002841	          0.29156184	          0.05000428	          0.05000076	          0.05004168	          0.05001114	          0.05000172	          0.33540253	          0.61005381	          0.05000067	          0.05000099	          0.05000063	          0.31820673	          0.09486316	          0.10045238	          0.09286795	          0.20210192	          0.27879556	          0.29478212	          0.19062099	          0.12921832	          0.18680481	          0.05000002	          0.17256876	          0.22790571	          0.05000018	          0.05000005	          0.05000019	          0.05000003	          0.06007056	          0.06440115	          0.22792567	          0.21531351	          0.25040879	          0.28354124	          0.19283304	          0.19438698	          0.16286750	          0.09599663	          0.10290885	          0.10416593	          0.06005216	          0.10416801	          0.22531537	          0.22679839	          0.13739581	          0.13467040	          0.05000033	          0.06020720	          0.13266335	          0.05000035	          0.13680013	          0.13516591	          0.05877404	          0.06007040	          0.44598884	          0.13754559	          0.16297708	          0.05000009	          0.05000010	          0.05000011	          0.05000009	          0.06006997	          0.06007029	          0.05077573	          0.05000007	          0.05000043	          0.05000037	          0.49400220	          0.31781816	          0.19046885	          0.34387629	          0.49380525	          0.22408233	          0.05000005	          0.13969521	          0.07939945	
          0.02416848	         -2.92500771	         -2.43689256	          7.41830826	          0.03766004	          0.91321126	         -0.00161248	        -15.87956113	         -2.77015947	          6.87455040	         27.62415167	          3.90368588	         -1.27871720	        -15.82963062	        -10.52748875	         -7.71670066	          4.40790192	         16.44815083	         -8.03439033	          7.95053387	         -0.42022316	          3.28238959	         -0.53823981	         -0.64764140	          0.62750290	         -3.14112901	          3.70081515	        -13.46233346	         15.60611070	        -11.03964712	        -13.50570592	          5.28847224	         43.41920812	         17.20094834	         86.51662706	         86.51662706	          0.24121048	          0.06007079	          0.05000040	          0.22003789	          0.11161902	          0.06774630	          0.05000202	          0.05000027	          0.05000025	          0.05000034	          0.07216879	          0.06738834	          0.05000095	          0.05000079	          0.05000158	          0.05000063	          0.27303711	          0.05588119	          0.05000305	          0.05001058	          0.05000149	          0.05000104	          0.30264627	          0.59054069	          0.05000065	          0.05000717	          0.05000058	          0.26567784	          0.07896382	          0.10223500	          0.16214639	          0.16822146	          0.23205816	          0.24536470	          0.15866532	          0.10755631	          0.15548894	          0.05000011	          0.14811608	          0.22922591	          0.05000048	          0.07661916	          0.05000042	          0.05926046	          0.05000031	          0.05360492	          0.32444199	          0.32956306	          0.35523602	          0.23600856	          0.18804335	          0.21080502	          0.13556435	          0.07990397	          0.08565730	          0.08670355	          0.05000077	          0.08670528	          0.18754345	          0.18877799	          0.11436330	          0.16496504	          0.05000050	          0.05011442	          0.11042383	          0.21500713	          0.19877937	          0.17250508	          0.05000008	          0.05000022	          0.37122311	          0.11448750	          0.13565578	          0.05000011	          0.05575575	          0.06129180	          0.05592972	          0.05000004	          0.05000016	          0.05000001	          0.05000032	          0.05000038	          0.05000038	          0.56860640	          0.31342529	          0.20270480	          0.41559079	          0.52137230	          0.31652635	          0.06527789	          0.11627666	          0.06608889	
          0.03625272	         -2.92080669	         -2.53523381	          7.63623894	          0.05648062	          0.91235532	         -0.00144399	        -15.73199588	         -3.10248180	          6.74775672	         27.02498581	          4.18276502	         -1.01033286	        -17.63533339	        -11.44777398	         -8.46409127	          3.65499913	         17.04531252	         -8.27725632	          5.63907345	         -0.46607753	          5.42262549	         -0.51995391	         -0.39988199	          0.85301495	         -3.18895822	          3.28512615	        -13.46756232	         15.91345774	        -11.96608828	        -13.49491688	          5.50477795	         44.46976129	         16.73070214	         86.51662706	         86.51662706	          0.22141828	          0.05000057	          0.05000006	          0.20250776	          0.09290728	          0.05638939	          0.05000099	          0.05000023	          0.05000021	          0.05000026	          0.06007113	          0.10878656	          0.05000100	          0.05000096	          0.05000095	          0.05000116	          0.24655522	          0.06009927	          0.05000059	          0.05000106	          0.05000085	          0.05000048	          0.25191069	          0.55810444	          0.05000010	          0.05000040	          0.05000014	          0.22113952	          0.10367086	          0.10362011	          0.13496460	          0.14002073	          0.19315583	          0.20423164	          0.13206666	          0.08952569	          0.12942284	          0.06446630	          0.15144394	          0.20286782	          0.07126847	          0.13987002	          0.05053050	          0.08084026	          0.05000001	          0.05000003	          0.39519614	          0.38595808	          0.40775155	          0.19961330	          0.15659755	          0.18024009	          0.11283833	          0.07996517	          0.07840086	          0.07216859	          0.05000042	          0.07217007	          0.15774995	          0.19764260	          0.20761420	          0.19478587	          0.05000031	          0.05006823	          0.11006631	          0.26218569	          0.23832382	          0.21393057	          0.05000015	          0.05000012	          0.30899115	          0.09529489	          0.12199160	          0.05000008	          0.11340691	          0.12195402	          0.10510003	          0.05000004	          0.05000009	          0.05000001	          0.05000003	          0.05000023	          0.05000019	          0.60519219	          0.26088263	          0.16872332	          0.45287087	          0.54160548	          0.33164771	          0.07468453	          0.09678399	          0.05500974	
